<?xml version="1.0" encoding="utf-8"?>
<!-- Generator: Adobe Illustrator 24.0.0, SVG Export Plug-In . SVG Version: 6.00 Build 0)  -->
<svg version="1.1" id="图层_1" xmlns="http://www.w3.org/2000/svg" xmlns:xlink="http://www.w3.org/1999/xlink" x="0px" y="0px"
	 viewBox="0 0 841.89 595.28" style="enable-background:new 0 0 841.89 595.28;" xml:space="preserve">
<style type="text/css">
	.st0{fill:#2EA7E0;}
</style>
<g>
	<path class="st0" d="M229.78,445.86c-1.87,0-3.3-0.57-4.29-1.71c-0.98-1.04-1.79-2.93-2.42-5.69l-11.14-51.58h12.23l9.19,41.92
		h0.15l11.38-39.19h6.31c1.92,0,3.19,0.91,3.82,2.73l11.29,36.15h0.16l9.97-41.6h6.94l-13.17,58.98h-6.08c-2.23,0-3.8-1.3-4.67-3.89
		c-0.27-0.73-4.29-13.89-12.08-39.5h-0.15l-11.14,43.39H229.78z"/>
	<path class="st0" d="M327.8,445.48h-8.73l-0.93-4.99c-2.65,4-6.7,6-12.16,6c-5.82,0-10.47-2.08-13.94-6.24
		c-3.43-4-5.15-9.27-5.15-15.82c0-6.95,1.85-12.62,5.54-16.98c3.63-4.26,8.23-6.39,13.79-6.39c4.52,0,8.32,1.19,11.38,3.59l0.7-2.73
		h9.51V445.48z M300.92,434.96c1.81,3.06,4.08,4.59,6.78,4.59c2.55,0,4.67-0.7,6.39-2.1c1.92-1.56,2.93-3.51,3.04-5.84v-16.75
		c0-2.13-1.04-3.97-3.12-5.53c-1.4-0.99-3.4-1.48-6-1.48c-2.76,0-5.09,1.61-7.02,4.83c-1.87,3.12-2.8,6.78-2.8,10.99
		C298.18,428.13,299.09,431.89,300.92,434.96z"/>
	<path class="st0" d="M349.06,409.72h0.15c2.13-5.76,7.3-8.65,15.5-8.65l-1.09,7.4c-4.99,0-8.55,1.4-10.68,4.21
		c-2.23,2.92-3.35,8.11-3.35,15.58v17.69h-11.3v-44.17h9.82L349.06,409.72z"/>
	<path class="st0" d="M383.11,406.6h0.16c1.97-3.84,5.79-5.76,11.45-5.76c5.82,0,9.71,1.97,11.68,5.92
		c1.82-3.95,5.43-5.92,10.83-5.92c2.91,0,5.38,1.27,7.41,3.82c2.18,2.8,3.27,6.44,3.27,10.9v30.31h-6.31v-29.37
		c0-6.02-2.16-9.03-6.47-9.03c-2.02,0-3.61,0.57-4.75,1.71c-1.56,1.56-2.34,4.13-2.34,7.72v28.98h-11.22v-29.14
		c0-6.18-2.18-9.27-6.54-9.27c-1.97,0-3.53,0.57-4.67,1.71c-1.25,1.51-1.87,3.77-1.87,6.78v29.91h-11.22v-43.94h10.13L383.11,406.6z
		"/>
	<path class="st0" d="M479.95,440.1l-0.62,5.84H449.1c-4.94,0-8.4-0.98-10.36-2.96c-1.87-1.87-2.81-5.01-2.81-9.43v-46.67h42.7
		l-0.7,5.69h-29.45v19.94h29.92l-0.62,5.61h-29.3v21.97H479.95z"/>
	<path class="st0" d="M528.03,445.71h-9.74l-0.47-3.66h-0.15c-3.33,2.96-7.85,4.44-13.56,4.44c-5.09,0-9.35-1.67-12.77-4.99
		c-4-3.9-6-9.48-6-16.75c0-7.01,1.79-12.68,5.37-16.99c3.33-4.1,7.43-6.16,12.31-6.16c6.44,0,10.98,1.33,13.63,3.98h0.15v-18.94
		h11.22V445.71z M513.92,436.9c1.4-1.5,2.3-3.3,2.72-5.37c0.73-4.67,0.73-9.63,0-14.88c-0.31-2.18-1.27-4.16-2.88-5.92
		c-1.82-1.82-3.97-2.73-6.46-2.73c-3.01,0-5.56,1.54-7.64,4.6c-2.02,3.06-3.04,6.83-3.04,11.3c0,4.25,0.85,7.9,2.57,10.9
		c1.82,3.17,4.23,4.78,7.24,4.83C509.71,439.74,512.21,438.83,513.92,436.9z"/>
	<path class="st0" d="M578.12,443.14c0,6.18-1.64,10.73-4.91,13.63c-3.27,2.96-8.42,4.44-15.43,4.44c-8.1,0-14.57-3.19-19.4-9.58
		l5.61-5.61c3.84,6.02,8.49,9.03,13.95,9.03c2.59,0,4.83-1.04,6.7-3.12c1.87-2.02,2.8-4.44,2.8-7.24v-5.61h-0.15
		c-3.01,3.38-7.12,5.07-12.31,5.07c-5.04,0-9.22-2.1-12.54-6.32c-3.33-4.21-4.99-9.45-4.99-15.74c0-6.02,1.68-11.01,5.06-14.96
		c3.33-3.89,7.51-5.84,12.55-5.84c5.71,0,9.79,1.45,12.23,4.36h0.15l0.93-3.27h9.74V443.14z M563.71,409.8
		c-1.61-1.35-3.55-2.03-5.84-2.03c-2.59,0-4.86,1.46-6.78,4.37c-1.87,2.85-2.8,6.1-2.8,9.73c0,4.21,0.9,7.74,2.72,10.6
		c1.87,2.86,4.16,4.29,6.86,4.29c2.65,0,4.83-0.81,6.54-2.42c1.25-1.24,2.05-3.3,2.42-6.15c0.62-4.21,0.57-8.73-0.15-13.56
		C566.36,412.81,565.37,411.2,563.71,409.8z"/>
	<path class="st0" d="M597.13,425.77c0,4.21,0.99,7.63,2.97,10.28c2.02,2.7,4.7,4.08,8.03,4.13c6.29,0,10.23-3.01,11.84-9.04
		l8.26,1.48c-2.55,9.24-9.37,13.87-20.49,13.87c-6.23,0-11.47-2.31-15.74-6.94c-4.1-4.46-6.16-9.73-6.16-15.82
		c0-6.44,2.1-11.86,6.32-16.28c4.21-4.42,9.4-6.62,15.58-6.62c6.18,0,11.22,2.1,15.12,6.31c4.21,4.52,6.24,10.73,6.08,18.62H597.13z
		 M618.17,419.46c-0.21-3.12-1.22-5.82-3.04-8.11c-2.03-2.44-4.47-3.66-7.32-3.66c-3.12,0-5.69,1.22-7.71,3.66
		c-1.82,2.23-2.8,4.94-2.97,8.11H618.17z"/>
</g>
<g>
	<g>
		<g>
			<path class="st0" d="M357.39,361.89c-6.51,0-24.31-1.27-38.07-13.75c-11.03-10-16.77-24.54-17.04-43.19l16.5-0.24
				c0.2,13.9,4.12,24.4,11.63,31.21c11.63,10.55,28.68,9.42,28.82,9.42c18.84-0.02,35.9-5.95,49.28-14.95
				c-11.96-12.8-19.3-27.96-20.29-42.44c-0.77-11.28,1.98-20.27,8.18-26.73c8.9-9.27,21.56-9.36,24.03-9.33
				c4.13,0.03,16.79,0.06,25.68,9.33c6.2,6.45,8.95,15.45,8.18,26.73c-0.99,14.49-8.34,29.67-20.36,42.47
				c13.28,8.98,30.15,14.89,48.67,14.89c0.81,0.02,17.97,1.16,29.61-9.48c7.44-6.81,11.32-17.28,11.52-31.12l16.5,0.24
				c-0.27,18.65-6.01,33.19-17.04,43.19c-17.04,15.46-40.28,13.74-41.28,13.63c-0.02,0-0.04,0-0.06,0
				c-23.58,0.01-44.55-8.02-60.65-20.04c-16.21,12.04-37.38,20.07-61.29,20.07C359.86,361.82,358.94,361.89,357.39,361.89z
				 M419.96,268.39c-1.5,0-7.78,0.23-11.64,4.25c-2.84,2.96-4.06,7.73-3.62,14.17c0.77,11.23,6.8,23.01,16.54,33.02
				c9.78-10.02,15.82-21.79,16.58-33.02c0.44-6.45-0.77-11.22-3.62-14.17c-4.22-4.42-11.35-4.25-11.67-4.26l-2.29,0.01
				C420.2,268.39,420.1,268.39,419.96,268.39z"/>
		</g>
	</g>
	<g>
		<g>
			<path class="st0" d="M613.51,364.61H229l-16.49-131.84l68.02-10.09l78.01-42.41v42.1h125.44v-42.1l78,42.41l68.03,10.09
				L613.51,364.61z M243.57,348.1h355.37l12.69-101.38l-56.25-8.85l-54.9-29.86v30.85H342.04v-30.85l-57.64,30.77l-53.51,7.94
				L243.57,348.1z"/>
		</g>
	</g>
	<g>
		<rect x="311.42" y="247.56" class="st0" width="16.5" height="20.59"/>
	</g>
	<g>
		<rect x="514.59" y="247.56" class="st0" width="16.5" height="20.59"/>
	</g>
</g>
</svg>
