<?xml version="1.0" encoding="UTF-8"?>
<svg version="1.1" viewBox="0 0 2048 1448" width="3509" height="2482" xmlns="http://www.w3.org/2000/svg">
<path transform="translate(870,555)" d="m0 0h2v101l304 1v-102l6 2 24 13 46 25 46 25 46 25 22 12 72 11 88 13 6 2-32 256-8 63-1 1h-935l-10-78-30-240v-3l166-25 30-16 23-13 23-12 22-12 24-13 23-13 23-12zm-41 68-34 18-28 15-75 40-24 4-107 16 2 20 28 224 1 3h183v-2l-6-5-12-16-7-12-6-15-5-18-3-19-1-18h16l24-1v13l3 19 5 16 8 15 11 13 12 9 17 8 15 4 13 2h28l24-3 22-5 23-8 21-10 14-9v-4l-9-10-12-17-9-16-7-15-6-18-3-15-1-9v-18l3-17 5-14 7-11 7-8 13-9 13-6 11-3 7-1h26l16 3 13 5 12 7 5 5h2l2 4 7 9 6 13 4 16 1 10v12l-2 17-5 19-6 16-10 19-8 12-10 13-8 9 4 4 16 9 19 9 24 8 18 4 13 2 12 1h27l19-3 15-5 15-8 12-11 7-8 8-14 5-15 3-14 1-9v-12l24 1h16l-2 25-4 20-6 18-10 19-9 12-7 8-2 1v2h183l5-37 26-207-1-3-132-21-7-2-23-13-34-18-23-13-23-12-23-13-4-1v74h-386v-74zm185 146-13 4-9 6-6 10-2 7-1 13 2 18 5 16 6 14 10 16 11 14 6 6 4-2 9-10 11-16 9-17 6-18 2-10v-23l-3-10-4-6-8-7-10-4-5-1zm8 179-11 8-9 5v2h44l-4-4-14-9-3-2z" fill="#2EA7E0"/>
<path transform="translate(1251,718)" d="m0 0h40v50h-40z" fill="#2EA7E0"/>
<path transform="translate(757,718)" d="m0 0h40v50h-40z" fill="#2EA7E0"/>
</svg>
